<?xml version="1.0" encoding="utf-8"?>
<!-- Generator: Adobe Illustrator 25.4.0, SVG Export Plug-In . SVG Version: 6.00 Build 0)  -->
<svg version="1.1" id="Layer_1" xmlns="http://www.w3.org/2000/svg" xmlns:xlink="http://www.w3.org/1999/xlink" x="0px" y="0px"
	 viewBox="0 0 100 33" style="enable-background:new 0 0 100 33;" xml:space="preserve">
<style type="text/css">
	.st0{fill-rule:evenodd;clip-rule:evenodd;fill:#E9E9E9;}
	.st1{filter:url(#Adobe_OpacityMaskFilter);}
	.st2{fill-rule:evenodd;clip-rule:evenodd;fill:#FFFFFF;}
	.st3{mask:url(#mask-4_00000066474428074145949940000010955865031124968338_);fill-rule:evenodd;clip-rule:evenodd;fill:#E9E9E9;}
</style>
<desc>Created with Sketch.</desc>
<g id="Symbols">
	<g id="PC_snow_top_logo">
		<g id="Page-1" transform="translate(0.000000, 1.000000)">
			<path id="Fill-4" class="st0" d="M28.5,9.2L27,6h0l-1.4,3.1H28.5z M20.6,13.2l6-12.8c0.1-0.1,0.2-0.2,0.3-0.2h0.2
				c0.1,0,0.3,0.1,0.3,0.2l6,12.8c0.1,0.2,0,0.5-0.3,0.5H31c-0.3,0-0.5-0.1-0.7-0.5l-0.7-1.5h-5.2l-0.7,1.5
				c-0.1,0.2-0.3,0.5-0.7,0.5h-2.1C20.6,13.7,20.5,13.5,20.6,13.2L20.6,13.2z"/>
			<path id="Fill-6" class="st0" d="M23.8,18.1c0-0.2,0.2-0.4,0.4-0.4h2.3c0.2,0,0.4,0.2,0.4,0.4v10.1h4.6c0.2,0,0.4,0.2,0.4,0.4
				v2.1c0,0.2-0.2,0.4-0.4,0.4h-7.2c-0.2,0-0.4-0.2-0.4-0.4V18.1z"/>
			<path id="Fill-8" class="st0" d="M42.5,0.6c0-0.2,0.2-0.3,0.4-0.3h0.5L51,7.5h0V0.8c0-0.2,0.2-0.4,0.4-0.4h2.3
				c0.2,0,0.4,0.2,0.4,0.4v12.8c0,0.2-0.2,0.3-0.4,0.3h-0.3c-0.1,0-0.2-0.1-0.2-0.1l-7.6-7.5h0v7.1c0,0.2-0.2,0.4-0.4,0.4h-2.3
				c-0.2,0-0.4-0.2-0.4-0.4L42.5,0.6z"/>
			<path id="Fill-10" class="st0" d="M49.7,26.5l-1.5-3.1h0l-1.4,3.1H49.7z M41.8,30.5l6-12.8c0.1-0.1,0.2-0.2,0.3-0.2h0.2
				c0.1,0,0.3,0.1,0.3,0.2l6,12.8c0.1,0.2,0,0.5-0.3,0.5h-2.1c-0.3,0-0.5-0.1-0.7-0.5L50.9,29h-5.2L45,30.6
				c-0.1,0.2-0.3,0.5-0.7,0.5h-2.1C41.9,31,41.7,30.8,41.8,30.5L41.8,30.5z"/>
			<path id="Fill-12" class="st0" d="M70.4,0.3c1.6,0,3.4,0.7,4.7,1.8c0.2,0.1,0.2,0.4,0,0.5l-1.5,1.6c-0.2,0.1-0.4,0.1-0.5,0
				c-0.7-0.7-1.6-0.9-2.5-0.9c-2.1,0-3.8,1.7-3.8,3.8c0,2.1,1.7,3.8,3.8,3.8c0.6,0,1.1-0.1,1.7-0.3V9.5h-1.2c-0.2,0-0.4-0.2-0.4-0.3
				V7.2c0-0.2,0.2-0.4,0.4-0.4H75c0.2,0,0.3,0.2,0.3,0.4l0,5.1c0,0.1-0.1,0.2-0.2,0.3c0,0-2,1.2-4.8,1.2c-3.8,0-6.9-3-6.9-6.8
				C63.5,3.3,66.6,0.3,70.4,0.3"/>
			<path id="Fill-14" class="st0" d="M68.1,20.5h-2.8c-0.2,0-0.4-0.2-0.4-0.4v-2.1c0-0.2,0.2-0.4,0.4-0.4h8.6c0.2,0,0.4,0.2,0.4,0.4
				v2.1c0,0.2-0.2,0.4-0.4,0.4h-2.8v10.1c0,0.2-0.2,0.4-0.4,0.4h-2.3c-0.2,0-0.4-0.2-0.4-0.4V20.5z"/>
			<g id="Group-18">
				<g id="Clip-17">
				</g>
				<defs>
					<filter id="Adobe_OpacityMaskFilter" filterUnits="userSpaceOnUse" x="84" y="0.2" width="13.9" height="13.7">
						<feColorMatrix  type="matrix" values="1 0 0 0 0  0 1 0 0 0  0 0 1 0 0  0 0 0 1 0"/>
					</filter>
				</defs>
				
					<mask maskUnits="userSpaceOnUse" x="84" y="0.2" width="13.9" height="13.7" id="mask-4_00000066474428074145949940000010955865031124968338_">
					<g class="st1">
						<polyline id="path-3_00000005951820787675222430000009134305776596296079_" class="st2" points="-2,0.2 97.8,0.2 97.8,31 
							-2,31 						"/>
					</g>
				</mask>
				<path id="Fill-16" class="st3" d="M90.9,10.9c2.1,0,3.9-1.7,3.9-3.8c0-2.1-1.7-3.8-3.9-3.8c-2.1,0-3.8,1.7-3.8,3.8
					C87.1,9.2,88.8,10.9,90.9,10.9 M90.9,0.2c3.9,0,6.9,3.1,6.9,6.9s-3.1,6.8-6.9,6.8c-3.9,0-6.9-3-6.9-6.8S87,0.2,90.9,0.2"/>
			</g>
			<path id="Fill-19" class="st0" d="M86.9,18.1c0-0.2,0.2-0.4,0.4-0.4h8c0.2,0,0.4,0.2,0.4,0.4v2.1c0,0.2-0.2,0.4-0.4,0.4h-5.3v2.4
				h4.4c0.2,0,0.4,0.2,0.4,0.4v2.1c0,0.2-0.2,0.4-0.4,0.4h-4.4v2.6h5.3c0.2,0,0.4,0.2,0.4,0.4v2.1c0,0.2-0.2,0.4-0.4,0.4h-8
				c-0.2,0-0.4-0.2-0.4-0.4V18.1z"/>
			<path id="Fill-21" class="st0" d="M7.9,23.8c0.8,0,1.5-0.7,1.5-1.5c0-0.8-0.7-1.4-1.5-1.4H6v2.9H7.9z M3.1,18.4
				c0-0.2,0.2-0.4,0.4-0.4H8c2.3,0,4.3,1.9,4.3,4.3c0,2.4-1.9,4.3-4.2,4.3H6v4.5c0,0.2-0.2,0.4-0.4,0.4H3.4c-0.2,0-0.4-0.2-0.4-0.4
				L3.1,18.4z"/>
			<path id="Fill-14_00000170999397781584230780000000393815441375333028_" class="st0" d="M5.2,3.1H2.4C2.2,3.1,2,3,2,2.8V0.7
				c0-0.2,0.2-0.4,0.4-0.4H11c0.2,0,0.4,0.2,0.4,0.4v2.1c0,0.2-0.2,0.4-0.4,0.4H8.2v10.1c0,0.2-0.2,0.4-0.4,0.4H5.5
				c-0.2,0-0.4-0.2-0.4-0.4V3.1z"/>
		</g>
	</g>
</g>
</svg>
